<svg width="8" height="8" viewBox="0 0 8 8" fill="none" xmlns="http://www.w3.org/2000/svg">
<path d="M0.75 3.00001H6.34467L5.73483 3.60984C5.6645 3.68017 5.62499 3.77555 5.62499 3.87501C5.62499 3.97447 5.6645 4.06985 5.73483 4.14018C5.80516 4.21051 5.90054 4.25002 6 4.25002C6.09946 4.25002 6.19484 4.21051 6.26517 4.14018L7.51517 2.89018C7.55 2.85536 7.57762 2.81402 7.59647 2.76852C7.61531 2.72302 7.62501 2.67426 7.62501 2.62501C7.62501 2.57576 7.61531 2.527 7.59647 2.4815C7.57762 2.436 7.55 2.39466 7.51517 2.35984L6.26517 1.10984C6.19484 1.03951 6.09946 1 6 1C5.90054 1 5.80516 1.03951 5.73483 1.10984C5.6645 1.18017 5.62499 1.27555 5.62499 1.37501C5.62499 1.47447 5.6645 1.56985 5.73483 1.64018L6.34467 2.25001H0.75C0.650544 2.25001 0.555161 2.28952 0.484835 2.35984C0.414509 2.43017 0.375 2.52555 0.375 2.62501C0.375 2.72447 0.414509 2.81985 0.484835 2.89017C0.555161 2.9605 0.650544 3.00001 0.75 3.00001Z" fill="white"/>
<path d="M7.25001 5.00001H1.65534L2.26519 4.39018C2.33551 4.31986 2.37502 4.22447 2.37502 4.12501C2.37502 4.02555 2.33551 3.93017 2.26519 3.85984C2.19486 3.78951 2.09947 3.75 2.00001 3.75C1.90055 3.75 1.80517 3.78951 1.73484 3.85984L0.484842 5.10984C0.450018 5.14466 0.422394 5.186 0.403547 5.2315C0.3847 5.277 0.375 5.32577 0.375 5.37501C0.375 5.42426 0.3847 5.47303 0.403547 5.51852C0.422394 5.56402 0.450018 5.60536 0.484842 5.64019L1.73484 6.89019C1.80517 6.96052 1.90055 7.00003 2.00001 7.00003C2.09947 7.00003 2.19486 6.96052 2.26519 6.89019C2.33551 6.81986 2.37502 6.72448 2.37502 6.62502C2.37502 6.52556 2.33551 6.43017 2.26519 6.35984L1.65534 5.75001H7.25001C7.34947 5.75001 7.44485 5.71051 7.51518 5.64018C7.58551 5.56985 7.62501 5.47447 7.62501 5.37501C7.62501 5.27556 7.58551 5.18017 7.51518 5.10985C7.44485 5.03952 7.34947 5.00001 7.25001 5.00001Z" fill="white"/>
</svg>
