<svg width="12" height="11" viewBox="0 0 12 11" fill="none" xmlns="http://www.w3.org/2000/svg">
<path d="M2.28125 11H8.72656C9.25968 11 9.69336 10.5663 9.69336 10.0332V3.22266H7.4375C6.90439 3.22266 6.4707 2.78897 6.4707 2.25586V0H2.28125C1.74814 0 1.31445 0.433684 1.31445 0.966797V10.0332C1.31445 10.5663 1.74814 11 2.28125 11ZM3.57031 4.5332H7.4375C7.61563 4.5332 7.75977 4.67734 7.75977 4.85547C7.75977 5.0336 7.61563 5.17773 7.4375 5.17773H3.57031C3.39219 5.17773 3.24805 5.0336 3.24805 4.85547C3.24805 4.67734 3.39219 4.5332 3.57031 4.5332ZM3.57031 5.82227H7.4375C7.61563 5.82227 7.75977 5.9664 7.75977 6.14453C7.75977 6.32266 7.61563 6.4668 7.4375 6.4668H3.57031C3.39219 6.4668 3.24805 6.32266 3.24805 6.14453C3.24805 5.9664 3.39219 5.82227 3.57031 5.82227ZM3.57031 7.11133H7.4375C7.61563 7.11133 7.75977 7.25547 7.75977 7.43359C7.75977 7.61172 7.61563 7.75586 7.4375 7.75586H3.57031C3.39219 7.75586 3.24805 7.61172 3.24805 7.43359C3.24805 7.25547 3.39219 7.11133 3.57031 7.11133ZM3.57031 8.40039H6.14844C6.32656 8.40039 6.4707 8.54453 6.4707 8.72266C6.4707 8.90078 6.32656 9.04492 6.14844 9.04492H3.57031C3.39219 9.04492 3.24805 8.90078 3.24805 8.72266C3.24805 8.54453 3.39219 8.40039 3.57031 8.40039Z" fill="#3E80FE"/>
<path d="M7.4375 2.5768H9.50453L7.11523 0.1875V2.25453C7.11523 2.43234 7.2597 2.5768 7.4375 2.5768Z" fill="#3E80FE"/>
</svg>
