<svg width="9" height="14" viewBox="0 0 9 14" fill="none" xmlns="http://www.w3.org/2000/svg">
<path d="M2.40167 13.4998C0.956568 8.73801 4.01003 6.99935 4.01003 6.99935C3.79639 9.5403 5.24035 11.5199 5.24035 11.5199C5.77142 11.3596 6.78507 10.6108 6.78507 10.6108C6.78507 11.5199 6.25022 13.4987 6.25022 13.4987C6.25022 13.4987 8.12259 12.0509 8.712 9.64636C9.30064 7.24178 7.59077 4.82772 7.59077 4.82772C7.6938 6.52964 7.11803 8.20354 5.98998 9.48234C6.04642 9.41719 6.09377 9.34484 6.13014 9.26643C6.33279 8.86112 6.65818 7.80769 6.46764 5.36826C6.19946 1.94396 3.09675 0.5 3.09675 0.5C3.36418 2.5864 2.56228 3.06709 0.683836 7.02738C-1.1946 10.9869 2.40167 13.4998 2.40167 13.4998Z" fill="#F9451E"/>
</svg>
