<svg width="12" height="12" viewBox="0 0 12 12" fill="none" xmlns="http://www.w3.org/2000/svg">
<path d="M11.4969 11.2936L10.2229 4.18572C10.1716 3.89957 9.92266 3.69127 9.6319 3.69127H7.51308C7.91035 3.29997 8.15724 2.75637 8.15724 2.156C8.15724 0.967168 7.19007 0 6.00123 0C4.81239 0 3.84519 0.967168 3.84519 2.156C3.84519 2.75637 4.09207 3.29997 4.48934 3.69127H2.37052C2.07976 3.69127 1.83084 3.89957 1.77952 4.18572L0.505509 11.2936C0.474168 11.4686 0.52192 11.6485 0.636037 11.7849C0.750113 11.9212 0.918746 12 1.09651 12H10.9059C11.0837 12 11.2523 11.9212 11.3664 11.7849C11.4805 11.6485 11.5283 11.4686 11.4969 11.2936ZM6.00123 1.2008C6.52794 1.2008 6.95643 1.62929 6.95643 2.156C6.95643 2.68272 6.52794 3.11124 6.00123 3.11124C5.47452 3.11124 5.04599 2.68272 5.04599 2.156C5.04599 1.62929 5.47452 1.2008 6.00123 1.2008ZM5.84433 9.29127C5.81307 9.3489 5.7527 9.38481 5.68714 9.38481H5.40391C5.34043 9.38481 5.28167 9.35115 5.24957 9.29635L4.54862 8.09975L4.10036 8.55733V9.10838C4.10036 9.26105 3.9766 9.38481 3.82393 9.38481C3.67127 9.38481 3.54751 9.26105 3.54751 9.10838V6.92304C3.54751 6.77038 3.67127 6.64661 3.82393 6.64661C3.9766 6.64661 4.10036 6.77038 4.10036 6.92304V7.86251L5.16423 6.70445C5.19809 6.66759 5.24589 6.64661 5.29592 6.64661H5.539C5.61081 6.64661 5.67561 6.68952 5.70367 6.75561C5.73169 6.82169 5.71748 6.89814 5.66761 6.94974L4.92967 7.71305L5.83708 9.10842C5.87283 9.16346 5.87563 9.23359 5.84433 9.29127ZM8.56787 8.92662C8.56787 8.98098 8.54305 9.03261 8.50059 9.06651C8.39027 9.15453 8.24494 9.23355 8.06457 9.30351C7.84475 9.38881 7.62216 9.43144 7.39681 9.43144C7.11037 9.43144 6.86081 9.3714 6.64778 9.2512C6.43492 9.13108 6.27485 8.95924 6.16778 8.73569C6.06067 8.51218 6.00716 8.2691 6.00716 8.00632C6.00716 7.72121 6.06692 7.46776 6.18648 7.24618C6.306 7.02451 6.48095 6.85459 6.71135 6.73623C6.88683 6.64537 7.10541 6.59986 7.36691 6.59986C7.70685 6.59986 7.97235 6.67119 8.16352 6.81377C8.24634 6.87553 8.31634 6.94754 8.37354 7.02975C8.42822 7.10832 8.4393 7.20923 8.40304 7.29777C8.36678 7.38635 8.28812 7.45059 8.19402 7.4682L8.19338 7.46832C8.08315 7.48894 7.97139 7.44011 7.91171 7.34516C7.87353 7.2844 7.82481 7.23241 7.76569 7.18914C7.65918 7.11133 7.52625 7.07242 7.36691 7.07242C7.1253 7.07242 6.93322 7.14903 6.79072 7.30213C6.64814 7.45536 6.57686 7.68259 6.57686 7.98391C6.57686 8.30893 6.64903 8.55265 6.79352 8.71516C6.93794 8.87763 7.12719 8.95888 7.36134 8.95888C7.4771 8.95888 7.59322 8.93619 7.70966 8.89072C7.82601 8.84525 7.92596 8.79013 8.00942 8.72545V8.37797H7.60695C7.47954 8.37797 7.37631 8.2747 7.37631 8.14734C7.37631 8.01993 7.47958 7.91671 7.60695 7.91671H8.38903C8.48782 7.91671 8.56787 7.9968 8.56787 8.09554V8.92662Z" fill="#236EFF"/>
</svg>
